<svg width="225" height="24" viewBox="0 0 225 24" fill="none" xmlns="http://www.w3.org/2000/svg">
<g clip-path="url(#clip0_39_7)">
<path d="M8.732 2.512C9.964 2.512 10.944 2.69867 11.672 3.072C12.5493 3.52 13.2213 4.136 13.688 4.92C14.1733 5.704 14.416 6.58133 14.416 7.552C14.416 8.46667 14.1733 9.316 13.688 10.1C13.2027 10.8653 12.54 11.472 11.7 11.92C12.708 12.2747 13.5573 12.8907 14.248 13.768C14.9387 14.6453 15.284 15.6347 15.284 16.736C15.284 17.7067 15.032 18.6027 14.528 19.424C14.0427 20.2267 13.3893 20.8613 12.568 21.328C12.1573 21.552 11.7 21.72 11.196 21.832C10.692 21.944 10.02 22 9.18 22H0.556V2.512H8.732ZM20.2186 2.512H21.2546V14.552C21.2546 15.784 21.5626 16.9227 22.1786 17.968C22.7946 19.0133 23.6252 19.844 24.6706 20.46C25.7159 21.076 26.8546 21.384 28.0866 21.384C29.3186 21.384 30.4572 21.076 31.5026 20.46C32.5479 19.844 33.3786 19.0133 33.9946 17.968C34.6106 16.9227 34.9186 15.784 34.9186 14.552V2.512H35.9546V14.552C35.9546 15.9707 35.5999 17.2867 34.8906 18.5C34.1812 19.6947 33.2199 20.6467 32.0066 21.356C30.8119 22.0653 29.5052 22.42 28.0866 22.42C26.6679 22.42 25.3519 22.0653 24.1386 21.356C22.9439 20.6467 21.9919 19.6947 21.2826 18.5C20.5732 17.2867 20.2186 15.9707 20.2186 14.552V2.512ZM49.2331 12.676C47.6465 12.3587 46.3491 12.0133 45.3411 11.64C44.3518 11.248 43.5678 10.7253 42.9891 10.072C42.4291 9.4 42.1491 8.54133 42.1491 7.496C42.1491 6.41333 42.4291 5.46133 42.9891 4.64C43.5678 3.81867 44.3705 3.184 45.3971 2.736C46.4425 2.288 47.6465 2.064 49.0091 2.064C50.3158 2.064 51.5105 2.344 52.5931 2.904C53.6945 3.44533 54.5625 4.21067 55.1971 5.2C55.8318 6.18933 56.1491 7.31867 56.1491 8.588H55.1131C55.1131 7.48667 54.8425 6.516 54.3011 5.676C53.7598 4.836 53.0225 4.192 52.0891 3.744C51.1558 3.27733 50.1198 3.044 48.9811 3.044C47.9731 3.044 47.0305 3.20267 46.1531 3.52C45.2758 3.83733 44.5571 4.32267 43.9971 4.976C43.4558 5.62933 43.1851 6.45067 43.1851 7.44C43.1851 8.336 43.4465 9.05467 43.9691 9.596C44.4918 10.1187 45.1731 10.52 46.0131 10.8C46.8531 11.08 48.0291 11.3787 49.5411 11.696C51.0718 12.0133 52.2571 12.3213 53.0971 12.62C53.9558 12.9 54.6745 13.376 55.2531 14.048C55.8505 14.72 56.1491 15.6627 56.1491 16.876C56.1491 18.0893 55.8225 19.116 55.1691 19.956C54.5345 20.7773 53.6851 21.3933 52.6211 21.804C51.5571 22.2147 50.3998 22.42 49.1491 22.42C47.5998 22.42 46.2371 22.1307 45.0611 21.552C43.8851 20.9733 42.9798 20.1613 42.3451 19.116C41.7291 18.052 41.4211 16.8387 41.4211 15.476H42.4571C42.4571 16.6707 42.7185 17.716 43.2411 18.612C43.7825 19.508 44.5571 20.208 45.5651 20.712C46.5731 21.1973 47.7678 21.44 49.1491 21.44C50.8665 21.44 52.2851 21.0293 53.4051 20.208C54.5438 19.3867 55.1131 18.2667 55.1131 16.848C55.1131 15.8773 54.8705 15.1307 54.3851 14.608C53.8998 14.0853 53.2838 13.712 52.5371 13.488C51.8091 13.2453 50.7078 12.9747 49.2331 12.676ZM75.8677 2.512V3.548H70.0437V20.964H75.8677V22H63.2397V20.964H69.0357V3.548H63.2397V2.512H75.8677ZM82.6503 22V2.512H83.7423L97.3503 15.728V2.512H98.3863V22H97.3503V17.184L83.6863 3.856V22H82.6503ZM104.273 2.512H117.993V3.548H105.309V11.444H116.341V12.48H105.309V20.964H117.993V22H104.273V2.512ZM132.139 12.676C130.553 12.3587 129.255 12.0133 128.247 11.64C127.258 11.248 126.474 10.7253 125.895 10.072C125.335 9.4 125.055 8.54133 125.055 7.496C125.055 6.41333 125.335 5.46133 125.895 4.64C126.474 3.81867 127.277 3.184 128.303 2.736C129.349 2.288 130.553 2.064 131.915 2.064C133.222 2.064 134.417 2.344 135.499 2.904C136.601 3.44533 137.469 4.21067 138.103 5.2C138.738 6.18933 139.055 7.31867 139.055 8.588H138.019C138.019 7.48667 137.749 6.516 137.207 5.676C136.666 4.836 135.929 4.192 134.995 3.744C134.062 3.27733 133.026 3.044 131.887 3.044C130.879 3.044 129.937 3.20267 129.059 3.52C128.182 3.83733 127.463 4.32267 126.903 4.976C126.362 5.62933 126.091 6.45067 126.091 7.44C126.091 8.336 126.353 9.05467 126.875 9.596C127.398 10.1187 128.079 10.52 128.919 10.8C129.759 11.08 130.935 11.3787 132.447 11.696C133.978 12.0133 135.163 12.3213 136.003 12.62C136.862 12.9 137.581 13.376 138.159 14.048C138.757 14.72 139.055 15.6627 139.055 16.876C139.055 18.0893 138.729 19.116 138.075 19.956C137.441 20.7773 136.591 21.3933 135.527 21.804C134.463 22.2147 133.306 22.42 132.055 22.42C130.506 22.42 129.143 22.1307 127.967 21.552C126.791 20.9733 125.886 20.1613 125.251 19.116C124.635 18.052 124.327 16.8387 124.327 15.476H125.363C125.363 16.6707 125.625 17.716 126.147 18.612C126.689 19.508 127.463 20.208 128.471 20.712C129.479 21.1973 130.674 21.44 132.055 21.44C133.773 21.44 135.191 21.0293 136.311 20.208C137.45 19.3867 138.019 18.2667 138.019 16.848C138.019 15.8773 137.777 15.1307 137.291 14.608C136.806 14.0853 136.19 13.712 135.443 13.488C134.715 13.2453 133.614 12.9747 132.139 12.676ZM152.866 12.676C151.279 12.3587 149.982 12.0133 148.974 11.64C147.985 11.248 147.201 10.7253 146.622 10.072C146.062 9.4 145.782 8.54133 145.782 7.496C145.782 6.41333 146.062 5.46133 146.622 4.64C147.201 3.81867 148.003 3.184 149.03 2.736C150.075 2.288 151.279 2.064 152.642 2.064C153.949 2.064 155.143 2.344 156.226 2.904C157.327 3.44533 158.195 4.21067 158.83 5.2C159.465 6.18933 159.782 7.31867 159.782 8.588H158.746C158.746 7.48667 158.475 6.516 157.934 5.676C157.393 4.836 156.655 4.192 155.722 3.744C154.789 3.27733 153.753 3.044 152.614 3.044C151.606 3.044 150.663 3.20267 149.786 3.52C148.909 3.83733 148.19 4.32267 147.63 4.976C147.089 5.62933 146.818 6.45067 146.818 7.44C146.818 8.336 147.079 9.05467 147.602 9.596C148.125 10.1187 148.806 10.52 149.646 10.8C150.486 11.08 151.662 11.3787 153.174 11.696C154.705 12.0133 155.89 12.3213 156.73 12.62C157.589 12.9 158.307 13.376 158.886 14.048C159.483 14.72 159.782 15.6627 159.782 16.876C159.782 18.0893 159.455 19.116 158.802 19.956C158.167 20.7773 157.318 21.3933 156.254 21.804C155.19 22.2147 154.033 22.42 152.782 22.42C151.233 22.42 149.87 22.1307 148.694 21.552C147.518 20.9733 146.613 20.1613 145.978 19.116C145.362 18.052 145.054 16.8387 145.054 15.476H146.09C146.09 16.6707 146.351 17.716 146.874 18.612C147.415 19.508 148.19 20.208 149.198 20.712C150.206 21.1973 151.401 21.44 152.782 21.44C154.499 21.44 155.918 21.0293 157.038 20.208C158.177 19.3867 158.746 18.2667 158.746 16.848C158.746 15.8773 158.503 15.1307 158.018 14.608C157.533 14.0853 156.917 13.712 156.17 13.488C155.442 13.2453 154.341 12.9747 152.866 12.676ZM174.545 2.512C175.777 2.512 176.757 2.69867 177.485 3.072C178.362 3.52 179.034 4.136 179.501 4.92C179.986 5.704 180.229 6.58133 180.229 7.552C180.229 8.46667 179.986 9.316 179.501 10.1C179.015 10.8653 178.353 11.472 177.513 11.92C178.521 12.2747 179.37 12.8907 180.061 13.768C180.751 14.6453 181.097 15.6347 181.097 16.736C181.097 17.7067 180.845 18.6027 180.341 19.424C179.855 20.2267 179.202 20.8613 178.381 21.328C177.97 21.552 177.513 21.72 177.009 21.832C176.505 21.944 175.833 22 174.993 22H166.369V2.512H174.545ZM193.367 2.512H194.459L202.467 22H201.347L198.715 15.56H189.111L186.451 22H185.359L193.367 2.512ZM189.531 14.552H198.295L193.899 3.856L189.531 14.552ZM207.738 2.512L214.654 12.928L221.514 2.512H222.746L215.158 14.02V22H214.122V14.02L206.506 2.512H207.738Z" fill="black"/>
</g>
<defs>
<clipPath id="clip0_39_7">
<rect width="225" height="24" fill="white"/>
</clipPath>
</defs>
</svg>
