<svg width="40" height="40" viewBox="0 0 40 40" fill="none" xmlns="http://www.w3.org/2000/svg">
<g clip-path="url(#clip0_1324_503)">
<circle cx="20" cy="20" r="20" fill="black"/>
<path d="M6.51917 17.756L5.36717 13.472L12.8012 13.472L9.43517 26H8.73317L6.86117 19.034L4.98917 26H4.28717L0.921172 13.472H1.60517L4.62917 24.758L6.51917 17.756ZM11.9372 14.138L6.23117 14.138L7.20317 17.756L9.09317 24.758L11.9372 14.138ZM15.1274 13.454H15.8474L20.2214 21.194L24.5774 13.454H25.2434L25.2434 25.982H15.1274L15.1274 13.454ZM15.7934 25.334H24.5774L24.5774 14.804L20.5274 21.932H19.8974L15.7934 14.696L15.7934 25.334ZM39.4136 26H27.6056L33.5096 13.202L39.4136 26ZM28.6496 25.334H38.3696L33.5096 14.786L28.6496 25.334Z" fill="#ACF4D9"/>
</g>
<defs>
<clipPath id="clip0_1324_503">
<rect width="40" height="40" fill="white"/>
</clipPath>
</defs>
</svg>
