<?xml version="1.0" encoding="utf-8"?>
<!-- Generator: Adobe Illustrator 21.0.0, SVG Export Plug-In . SVG Version: 6.00 Build 0)  -->
<svg version="1.1" id="Шар_4" xmlns="http://www.w3.org/2000/svg" xmlns:xlink="http://www.w3.org/1999/xlink" x="0px" y="0px"
	 viewBox="0 0 540.5 146.7" style="enable-background:new 0 0 540.5 146.7;" xml:space="preserve">
<style type="text/css">
	.st0{font-family:'Panton-BlackCaps';}
	.st1{font-size:26.8423px;}
</style>
<g>
	<g>
		<path d="M68,84c7.4,0,20.7,11.9,20.7,11.9s-5.2-15.4-5.2-22.1c0-6.7,5.2-22.1,5.2-22.1s-13.1,12.1-21,12.1c-1,0-2.4-0.7-4.3-1.9
			C57,56.8,48.1,51.8,37.2,51.8C14,51.8,0,74.1,0,74.1s14,22.3,37.2,22.3c10.9,0,19.8-5,26.2-10.2C65.5,84.8,67.1,84,68,84z
			 M37.2,82.7c-4.7,0-8.6-3.8-8.6-8.6c0-4.7,3.8-8.6,8.6-8.6c4.7,0,8.6,3.8,8.6,8.6C45.8,78.9,41.9,82.7,37.2,82.7z"/>
		<path d="M283.6,71l-9-5.2l2.7-10.1c0.5-1.7,0.2-3.1-0.7-4l0,0c0,0,0,0,0,0s-13,12.1-21,12.1c-6.3,0-33.2-29.8-64.4-42.1
			c-0.1-0.7-0.4-1.5-0.9-2.2l-9.6-16.6c-2.2-3.9-5.9-3.9-8.1,0l-3.8,6.5l-3.8-6.5c-2.2-3.9-5.9-3.9-8.1,0l-3.8,6.5l-3.8-6.5
			c-2.2-3.9-5.9-3.9-8.1,0l-7.8,13.5c-27.8,0-63,0-80.8,0c0,0,19.1,7.4,22.3,35.8c0,0,3.6-12.6-5.3-29.8
			c18.4,9.9,30.9,29.3,30.9,51.7c0,22.3-12.5,41.8-30.9,51.7c8.8-17.1,5.3-29.7,5.3-29.7c-3,26.4-19.8,34.7-22.1,35.7
			c-0.1,0-0.2,0-0.3,0.1c0,0,0.1,0,0.1,0c-0.1,0-0.1,0.1-0.1,0.1l0.3-0.1c18.1,0,53.6,0,81.4,0l6.9,12c2.2,3.9,5.9,3.9,8.1,0
			l3.8-6.5l3.8,6.5c2.2,3.9,5.9,3.9,8.1,0l3.8-6.5l3.8,6.5c2.2,3.9,5.9,3.9,8.1,0l9.6-16.6c0.1-0.1,0.1-0.2,0.2-0.4
			C222.4,114.6,250.1,84,256,84c7.4,0,20.7,11.9,20.7,11.9s0,0,0-0.1l0.1,0.1c0.8-0.8,1.1-2.2,0.7-4l-2.5-9.4l8.7-5
			C286.7,75.8,286.7,72.8,283.6,71z M178.2,74.1L178.2,74.1c0,0.8,0,1.5,0,2.3c-0.7,18.2-10.1,34.1-24.2,43.7
			c-2.4,1.6-4.8,3.1-7.5,4.3c-1,0.5-2.1,1-3.1,1.4c1.1-0.8,2.1-1.6,3.2-2.4c1.2-1,2.4-2.1,3.5-3.1c0,0,0.1-0.1,0.1-0.1
			c12.1-11.6,19.6-27.9,19.6-46c0-18.9-8.2-35.9-21.3-47.6c-1.6-1.5-3.4-2.9-5.2-4.2c1.1,0.5,2.2,1,3.3,1.5c1.7,0.8,3.3,1.7,4.9,2.7
			c14.7,9,24.8,24.6,26.4,42.7c0.1,0.9,0.1,1.7,0.2,2.6C178.2,72.6,178.2,73.4,178.2,74.1C178.2,74.1,178.2,74.1,178.2,74.1z
			 M123.3,51.5c-4.7,0-8.6-3.8-8.6-8.6c0-4.7,3.8-8.6,8.6-8.6c4.7,0,8.6,3.8,8.6,8.6C131.8,47.6,128,51.5,123.3,51.5z M199.7,70.1
			c3.9,2.2,3.9,5.9,0,8.1l-6.5,3.8l6.5,3.8c3.9,2.2,3.9,5.9,0,8.1l-16.6,9.6c-0.2,0.1-0.5,0.3-0.7,0.4c5-8.7,7.9-18.9,7.9-29.7
			c0-10.8-2.9-20.9-7.9-29.7c0.2,0.1,0.5,0.2,0.7,0.4l16.6,9.6c3.9,2.2,3.9,5.9,0,8.1l-6.5,3.8L199.7,70.1z M222.8,70.1
			c3.9,2.2,3.9,5.9,0,8.1l-6.5,3.8l6.5,3.8c3.9,2.2,3.9,5.9,0,8.1l-16.6,9.6c-0.2,0.1-0.5,0.3-0.7,0.4c5-8.7,7.9-18.9,7.9-29.7
			c0-10.8-2.9-20.9-7.9-29.7c0.2,0.1,0.5,0.2,0.7,0.4l16.6,9.6c3.9,2.2,3.9,5.9,0,8.1l-6.5,3.8L222.8,70.1z"/>
	</g>
	<g>
		<text transform="matrix(1 0 0 1 319.386 31.6188)"><tspan x="0" y="0" class="st0 st1">KYIV </tspan><tspan x="0" y="32.2" class="st0 st1">INTERNATIONAL </tspan><tspan x="0" y="64.4" class="st0 st1">ADVERTISING </tspan><tspan x="0" y="96.6" class="st0 st1">FESTIVAL</tspan></text>
	</g>
</g>
</svg>
