<svg width="62" height="42" viewBox="0 0 62 42" fill="none" xmlns="http://www.w3.org/2000/svg">
<path d="M7.722 19.924L6.314 14.688L15.4 14.688L11.286 30H10.428L8.14 21.486L5.852 30H4.994L0.88 14.688H1.716L5.412 28.482L7.722 19.924ZM14.344 15.502L7.37 15.502L8.558 19.924L10.868 28.482L14.344 15.502ZM18.2432 14.666H19.1232L24.4692 24.126L29.7932 14.666H30.6072L30.6072 29.978H18.2432L18.2432 14.666ZM19.0572 29.186H29.7932L29.7932 16.316L24.8432 25.028H24.0732L19.0572 16.184L19.0572 29.186ZM47.9263 30L33.4943 30L40.7103 14.358L47.9263 30ZM34.7703 29.186L46.6503 29.186L40.7103 16.294L34.7703 29.186Z" fill="black"/>
</svg>
