<svg width="199" height="69" viewBox="0 0 199 69" fill="none" xmlns="http://www.w3.org/2000/svg">
<g clip-path="url(#clip0_1351_577)">
<path d="M198.4 0.599991V67.9H0.599998V0.599991H198.4ZM198.9 0H0V68.4H198.8L198.9 0Z" fill="black"/>
<path d="M35.4004 59.4005H31.9004V31.8005H41.4004C43.6004 31.7005 45.8004 32.6005 47.4004 34.1005C49.0004 35.7005 50.0004 37.8005 50.0004 40.0005C50.0004 42.2005 49.1004 44.4005 47.4004 45.9005C45.8004 47.5005 43.6004 48.2005 41.4004 48.2005H35.4004C35.4004 48.3005 35.4004 59.4005 35.4004 59.4005ZM35.4004 44.9005H41.3004C42.7004 45.0005 44.0004 44.4005 44.9004 43.4005C45.8004 42.5005 46.2004 41.3005 46.3004 40.0005C46.3004 38.8005 45.8004 37.6005 44.9004 36.7005C44.0004 35.7005 42.7004 35.1005 41.3004 35.1005H35.4004V44.9005Z" fill="black"/>
<path d="M58.5991 59.9992C56.6991 60.0992 54.8991 59.3992 53.5991 58.2992C52.1991 57.1992 51.4991 55.4992 51.4991 53.6992C51.3991 51.7992 52.3991 49.9992 53.8991 48.7992C55.5991 47.5992 57.6991 46.9992 59.7991 47.0992C61.5991 46.9992 63.2991 47.3992 64.9991 48.2992V47.6992C65.0991 46.4992 64.4991 45.1992 63.5991 44.2992C62.5991 43.3992 61.3991 43.0992 60.0991 43.0992C59.0991 43.0992 58.0991 43.2992 57.2991 43.7992C56.4991 44.1992 55.8991 44.9992 55.5991 45.8992L52.2991 44.4992C52.8991 43.2992 53.7991 42.1992 54.8991 41.3992C56.3991 40.2992 58.1991 39.7992 60.0991 39.8992C62.2991 39.7992 64.4991 40.4992 66.0991 41.9992C67.7991 43.5992 68.6991 45.6992 68.4991 47.9992V59.4992H65.0991V56.7992H64.8991C63.4991 58.7992 61.0991 59.9992 58.5991 59.9992ZM59.1991 56.6992C60.6991 56.6992 62.0991 56.0992 63.1991 55.0992C64.2991 54.1992 64.9991 52.6992 64.9991 51.1992C63.6991 50.2992 62.0991 49.8992 60.4991 49.9992C59.0991 49.8992 57.6991 50.1992 56.5991 51.0992C55.6991 51.6992 55.2991 52.6992 55.2991 53.7992C55.2991 54.6992 55.6991 55.4992 56.4991 55.9992C57.2991 56.3992 58.1991 56.6992 59.1991 56.6992Z" fill="black"/>
<path d="M75.3992 40.3V43.4H75.5992C75.9992 42.3 76.7992 41.4 77.8992 40.8C78.9992 40.2 80.2992 39.9 81.5992 39.9C81.9992 39.8 82.4992 39.8 82.7992 39.9V43.3C82.2992 43.2 81.8992 43.2 81.3992 43.3C79.8992 43.2 78.3992 43.8 77.2992 44.8C76.1992 45.9 75.5992 47.4 75.6992 48.9V59.1H72.1992V40.3H75.3992ZM94.7992 59.3C93.0992 59.5 91.3992 58.9 90.2992 57.7C89.0992 56.5 88.4992 54.8 88.6992 53.2V43.4H85.2992V40.2H88.5992V34.5H92.0992V40.3H96.6992V43.5H92.0992V53C92.0992 55.1 92.9992 56.1 94.6992 56.1C95.2992 56.1 95.7992 56 96.2992 55.8L97.4992 58.9C96.6992 59.2 95.6992 59.3 94.7992 59.3Z" fill="black"/>
<path d="M103.7 40.3994V42.9994H103.9C104.5 42.0994 105.3 41.2994 106.4 40.6994C107.5 40.0994 108.7 39.7994 109.9 39.7994C112 39.6994 113.9 40.4994 115.4 41.9994C116.7 43.5994 117.4 45.6994 117.3 47.7994V59.3994H113.7V48.3994C113.7 44.8994 112.1 43.1994 109 43.1994C107.6 43.1994 106.2 43.7994 105.3 44.8994C104.4 46.0994 103.9 47.4994 103.9 48.9994V59.4994H100.4V40.5994L103.7 40.3994Z" fill="black"/>
<path d="M130.3 59.999C127.7 60.099 125.3 59.099 123.5 57.099C121.7 55.099 120.8 52.599 120.9 50.099C120.8 47.499 121.8 44.899 123.5 43.099C125.1 41.099 127.5 39.899 130 39.999C132.5 39.899 134.9 40.899 136.5 42.699C138.2 44.799 139.2 47.499 138.9 50.199V50.799H124.4C124.4 52.499 125.1 54.099 126.3 55.299C127.4 56.399 128.8 56.899 130.3 56.899C132.5 57.099 134.5 55.799 135.3 53.699L138.4 54.899C137.8 56.399 136.8 57.599 135.4 58.599C133.8 59.599 132.1 59.999 130.3 59.999ZM135.2 47.699C135.1 46.499 134.6 45.499 133.8 44.599C132.7 43.499 131.3 42.999 129.8 43.099C128.6 43.099 127.4 43.499 126.5 44.299C125.5 45.199 124.8 46.299 124.5 47.599H135.2V47.699Z" fill="black"/>
<path d="M145.699 59.4008H142.199V40.3008H145.599V43.4008H145.799C146.199 42.3008 146.999 41.4008 147.999 40.8008C148.899 40.2008 150.099 39.8008 151.199 39.8008C152.099 39.8008 152.999 40.0008 153.899 40.3008L152.499 43.7008C151.899 43.5008 151.299 43.4008 150.599 43.5008C149.399 43.5008 147.999 44.1008 147.199 45.1008C146.099 46.2008 145.599 47.7008 145.699 49.2008V59.4008Z" fill="black"/>
<path d="M40.3004 25.4994C37.2004 25.6994 34.1004 24.0994 32.6004 21.3994C31.0004 18.6994 31.0004 15.3994 32.6004 12.6994C34.2004 9.99935 37.2004 8.49935 40.3004 8.59935C42.5004 8.49935 44.6004 9.39935 46.2004 10.8994L44.6004 12.4994C43.5004 11.3994 42.0004 10.8994 40.5004 10.8994C37.1004 10.8994 34.3004 13.5993 34.3004 17.0993C34.3004 20.4993 37.0004 23.2993 40.5004 23.2993C42.1004 23.3993 43.7004 22.6993 44.8004 21.5993C45.5004 20.7993 46.0004 19.7994 46.0004 18.6994H40.3004V16.2993H48.1004C48.2004 16.7993 48.2004 17.2994 48.2004 17.8994C48.3004 19.8994 47.5004 21.7993 46.1004 23.2993C44.7004 24.6993 42.5004 25.5994 40.3004 25.4994Z" fill="black"/>
<path d="M60.4999 19.9004C60.4999 22.2004 59.1999 24.2004 57.0999 25.1004C54.9999 26.0004 52.5999 25.5004 50.9999 23.9004C49.3999 22.3004 48.8999 19.9004 49.7999 17.8004C50.5999 15.7004 52.6999 14.4004 54.9999 14.4004C56.4999 14.4004 57.8999 15.0004 58.8999 16.0004C59.8999 17.0004 60.4999 18.4004 60.4999 19.9004ZM58.0999 19.9004C57.9999 18.2004 56.4999 16.9004 54.7999 17.0004C53.0999 17.1004 51.6999 18.5004 51.7999 20.2004C51.8999 21.9004 53.1999 23.3004 54.8999 23.3004C55.7999 23.3004 56.5999 22.9004 57.1999 22.3004C57.7999 21.5004 58.0999 20.7004 58.0999 19.9004Z" fill="black"/>
<path d="M73.1991 19.9004C73.1991 22.2004 71.8991 24.2004 69.7991 25.1004C67.6991 26.0004 65.2991 25.5004 63.6991 23.9004C62.0991 22.3004 61.5991 19.9004 62.4991 17.8004C63.3991 15.7004 65.3991 14.4004 67.6991 14.4004C69.1991 14.4004 70.5991 15.0004 71.5991 16.0004C72.5991 17.0004 73.1991 18.4004 73.1991 19.9004ZM70.7991 19.9004C70.6991 18.2004 69.1991 16.9004 67.4991 17.0004C65.7991 17.1004 64.3991 18.5004 64.4991 20.2004C64.5991 21.9004 65.8991 23.3004 67.5991 23.3004C68.4991 23.3004 69.2991 22.9004 69.8991 22.3004C70.4991 21.7004 70.7991 20.7004 70.7991 19.9004Z" fill="black"/>
<path d="M84.8004 14.6008V24.1008C85.0004 25.5008 84.6004 27.0008 83.6004 28.1008C82.6004 29.2008 81.1004 29.7008 79.6004 29.7008C77.4004 29.7008 75.5004 28.5008 74.7004 26.6008L76.8004 25.7008C77.2004 26.8008 78.4004 27.6008 79.6004 27.6008C80.5004 27.7008 81.3004 27.4008 81.9004 26.7008C82.5004 26.1008 82.8004 25.3008 82.6004 24.5008V23.8008C81.8004 24.5008 80.7004 24.9008 79.6004 24.9008C76.6004 24.7008 74.4004 22.4008 74.4004 19.6008C74.4004 16.8008 76.7004 14.4008 79.6004 14.3008C80.7004 14.3008 81.8004 14.7008 82.5004 15.5008V14.6008H84.8004ZM82.7004 19.6008C82.8004 18.8008 82.5004 18.0008 81.9004 17.4008C81.3004 16.8008 80.5004 16.5008 79.7004 16.4008C78.8004 16.5008 78.0004 16.8008 77.4004 17.4008C76.7004 17.9008 76.4004 18.8008 76.4004 19.6008C76.3004 20.4008 76.6004 21.2008 77.3004 21.8008C77.9004 22.4008 78.7004 22.7008 79.6004 22.7008C80.5004 22.6008 81.2004 22.3008 81.8004 21.7008C82.4004 21.1008 82.6004 20.3008 82.5004 19.5008C82.5004 19.6008 82.7004 19.6008 82.7004 19.6008Z" fill="black"/>
<path d="M89.1 9V25.5H86.5V9H89.1Z" fill="black"/>
<path d="M98.9005 21.8008L100.601 23.0008C99.4005 25.0008 97.0005 25.9008 94.8005 25.2008C92.6005 24.5008 91.1005 22.3008 91.1005 19.9008C91.0005 18.5008 91.5005 17.0008 92.4005 16.0008C93.3005 14.9008 94.7005 14.3008 96.0005 14.3008C98.0005 14.4008 99.8005 15.8008 100.401 17.8008L100.601 18.4008L93.7005 21.5008C94.1005 22.6008 95.1005 23.2008 96.2005 23.2008C97.4005 23.3008 98.4005 22.7008 98.9005 21.8008ZM93.5005 19.6008L98.1005 17.5008C97.7005 16.7008 97.0005 16.3008 96.1005 16.3008C95.4005 16.4008 94.6005 16.8008 94.1005 17.4008C93.7005 18.1008 93.4005 18.9008 93.5005 19.6008Z" fill="black"/>
<path d="M18.1 0H0V68.4H18.1V0Z" fill="black"/>
</g>
<defs>
<clipPath id="clip0_1351_577">
<rect width="198.9" height="68.4" fill="white"/>
</clipPath>
</defs>
</svg>
