<svg width="296" height="44" viewBox="0 0 296 44" fill="none" xmlns="http://www.w3.org/2000/svg">
<path d="M44.2812 0H51.408V44H44.2812V0Z" fill="#17313B"/>
<path d="M76.1969 30.0567C76.1969 36.8736 70.6194 37.4933 68.7603 37.4933C64.4223 37.4933 63.8025 33.4652 63.8025 31.2962V14.2539H56.6758V30.9863C56.6758 35.0145 57.9152 38.7328 60.3941 40.9018C62.5631 43.0708 65.3518 44.0004 68.7603 44.0004C71.2392 44.0004 74.3378 43.3807 76.1969 41.5215V44.0004H83.3237V14.2539H76.1969V30.0567Z" fill="#17313B"/>
<path d="M97.2674 3.4082H90.1407V14.2533H84.873V21.0702H90.1407V43.9997H97.2674V21.0702H102.535V14.2533H97.2674V3.4082Z" fill="#17313B"/>
<path d="M124.846 35.0141C123.297 36.2535 121.128 37.1831 118.958 37.1831C114.001 37.1831 110.592 33.4648 110.592 28.507C110.592 23.5493 114.001 20.1408 118.958 20.1408C121.128 20.1408 123.297 20.7605 124.846 22.3098L125.775 23.2394L130.733 18.5915L129.494 17.662C126.705 15.1831 122.987 13.6338 118.958 13.6338C110.282 13.6338 103.775 20.1408 103.775 28.8169C103.775 37.4929 110.282 44 118.958 44C122.987 44 126.705 42.4507 129.494 39.9718L130.733 39.0422L125.775 34.0845L124.846 35.0141Z" fill="#17313B"/>
<path d="M155.831 16.7324C153.662 14.5634 151.493 13.6338 148.084 13.6338C145.605 13.6338 143.127 14.2535 141.267 16.1127V0H134.141V44H141.267V27.5775C141.267 20.7606 145.915 20.1408 147.774 20.1408C152.112 20.1408 151.803 24.169 151.803 26.338V43.6901H158.929V26.6479C158.929 22.6197 158 18.9014 155.831 16.7324Z" fill="#17313B"/>
<path d="M118.647 33.7749C121.385 33.7749 123.605 31.5552 123.605 28.8171C123.605 26.079 121.385 23.8594 118.647 23.8594C115.909 23.8594 113.689 26.079 113.689 28.8171C113.689 31.5552 115.909 33.7749 118.647 33.7749Z" fill="#EF4335"/>
<path d="M34.3662 33.1552C31.8873 35.634 28.169 37.1833 24.1408 37.1833C16.3944 37.1833 10.8169 30.9861 10.8169 22.6199C10.8169 14.2537 16.3944 8.05656 24.4507 8.05656C28.169 8.05656 31.8873 9.60586 34.6761 12.3946L35.6056 13.3242L40.2535 8.67628L39.3239 7.7467C35.2958 3.71853 30.0282 1.54952 24.4507 1.54952C12.6761 1.23966 4 10.5354 4 22.6199C4 34.7044 12.6761 44.0002 24.1408 44.0002C29.7183 44.0002 35.2958 41.8312 39.0141 37.803L39.9437 36.8735L35.2958 32.2256L34.3662 33.1552Z" fill="#17313B"/>
<path d="M181.024 7.46353C181.174 7.00287 181.826 7.00287 181.976 7.46353L183.97 13.6008C184.037 13.8068 184.229 13.9463 184.445 13.9463H190.898C191.383 13.9463 191.584 14.5661 191.192 14.8508L185.972 18.6439C185.796 18.7712 185.723 18.9969 185.79 19.2029L187.784 25.3402C187.934 25.8008 187.406 26.1839 187.015 25.8992L181.794 22.1061C181.619 21.9788 181.381 21.9788 181.206 22.1061L175.985 25.8992C175.594 26.1839 175.066 25.8008 175.216 25.3402L177.21 19.2029C177.277 18.9969 177.204 18.7712 177.028 18.6439L171.808 14.8508C171.416 14.5661 171.617 13.9463 172.102 13.9463H178.555C178.771 13.9463 178.963 13.8068 179.03 13.6008L181.024 7.46353Z" fill="black"/>
<path d="M204.024 7.46353C204.174 7.00287 204.826 7.00287 204.976 7.46353L206.97 13.6008C207.037 13.8068 207.229 13.9463 207.445 13.9463H213.898C214.383 13.9463 214.584 14.5661 214.192 14.8508L208.972 18.6439C208.796 18.7712 208.723 18.9969 208.79 19.2029L210.784 25.3402C210.934 25.8008 210.406 26.1839 210.015 25.8992L204.794 22.1061C204.619 21.9788 204.381 21.9788 204.206 22.1061L198.985 25.8992C198.594 26.1839 198.066 25.8008 198.216 25.3402L200.21 19.2029C200.277 18.9969 200.204 18.7712 200.028 18.6439L194.808 14.8508C194.416 14.5661 194.617 13.9463 195.102 13.9463H201.555C201.771 13.9463 201.963 13.8068 202.03 13.6008L204.024 7.46353Z" fill="black"/>
<path d="M227.024 7.46353C227.174 7.00287 227.826 7.00287 227.976 7.46353L229.97 13.6008C230.037 13.8068 230.229 13.9463 230.445 13.9463H236.898C237.383 13.9463 237.584 14.5661 237.192 14.8508L231.972 18.6439C231.796 18.7712 231.723 18.9969 231.79 19.2029L233.784 25.3402C233.934 25.8008 233.406 26.1839 233.015 25.8992L227.794 22.1061C227.619 21.9788 227.381 21.9788 227.206 22.1061L221.985 25.8992C221.594 26.1839 221.066 25.8008 221.216 25.3402L223.21 19.2029C223.277 18.9969 223.204 18.7712 223.028 18.6439L217.808 14.8508C217.416 14.5661 217.617 13.9463 218.102 13.9463H224.555C224.771 13.9463 224.963 13.8068 225.03 13.6008L227.024 7.46353Z" fill="black"/>
<path d="M250.024 7.46353C250.174 7.00287 250.826 7.00287 250.976 7.46353L252.97 13.6008C253.037 13.8068 253.229 13.9463 253.445 13.9463H259.898C260.383 13.9463 260.584 14.5661 260.192 14.8508L254.972 18.6439C254.796 18.7712 254.723 18.9969 254.79 19.2029L256.784 25.3402C256.934 25.8008 256.406 26.1839 256.015 25.8992L250.794 22.1061C250.619 21.9788 250.381 21.9788 250.206 22.1061L244.985 25.8992C244.594 26.1839 244.066 25.8008 244.216 25.3402L246.21 19.2029C246.277 18.9969 246.204 18.7712 246.028 18.6439L240.808 14.8508C240.416 14.5661 240.617 13.9463 241.102 13.9463H247.555C247.771 13.9463 247.963 13.8068 248.03 13.6008L250.024 7.46353Z" fill="black"/>
<path d="M273.024 7.46353C273.174 7.00287 273.826 7.00287 273.976 7.46353L275.97 13.6008C276.037 13.8068 276.229 13.9463 276.445 13.9463H282.898C283.383 13.9463 283.584 14.5661 283.192 14.8508L277.972 18.6439C277.796 18.7712 277.723 18.9969 277.79 19.2029L279.784 25.3402C279.934 25.8008 279.406 26.1839 279.015 25.8992L273.794 22.1061C273.619 21.9788 273.381 21.9788 273.206 22.1061L267.985 25.8992C267.594 26.1839 267.066 25.8008 267.216 25.3402L269.21 19.2029C269.277 18.9969 269.204 18.7712 269.028 18.6439L263.808 14.8508C263.416 14.5661 263.617 13.9463 264.102 13.9463H270.555C270.771 13.9463 270.963 13.8068 271.03 13.6008L273.024 7.46353Z" fill="black"/>
</svg>
