<svg width="296" height="44" viewBox="0 0 296 44" fill="none" xmlns="http://www.w3.org/2000/svg">
<path d="M44.2812 0H51.408V44H44.2812V0Z" fill="#17313B"/>
<path d="M76.1969 30.0567C76.1969 36.8736 70.6194 37.4933 68.7603 37.4933C64.4223 37.4933 63.8025 33.4652 63.8025 31.2962V14.2539H56.6758V30.9863C56.6758 35.0145 57.9152 38.7328 60.3941 40.9018C62.5631 43.0708 65.3518 44.0004 68.7603 44.0004C71.2392 44.0004 74.3378 43.3807 76.1969 41.5215V44.0004H83.3237V14.2539H76.1969V30.0567Z" fill="#17313B"/>
<path d="M97.2674 3.4082H90.1407V14.2533H84.873V21.0702H90.1407V43.9997H97.2674V21.0702H102.535V14.2533H97.2674V3.4082Z" fill="#17313B"/>
<path d="M124.846 35.0141C123.297 36.2535 121.128 37.1831 118.958 37.1831C114.001 37.1831 110.592 33.4648 110.592 28.507C110.592 23.5493 114.001 20.1408 118.958 20.1408C121.128 20.1408 123.297 20.7605 124.846 22.3098L125.775 23.2394L130.733 18.5915L129.494 17.662C126.705 15.1831 122.987 13.6338 118.958 13.6338C110.282 13.6338 103.775 20.1408 103.775 28.8169C103.775 37.4929 110.282 44 118.958 44C122.987 44 126.705 42.4507 129.494 39.9718L130.733 39.0422L125.775 34.0845L124.846 35.0141Z" fill="#17313B"/>
<path d="M155.831 16.7324C153.662 14.5634 151.493 13.6338 148.084 13.6338C145.605 13.6338 143.127 14.2535 141.267 16.1127V0H134.141V44H141.267V27.5775C141.267 20.7606 145.915 20.1408 147.774 20.1408C152.112 20.1408 151.803 24.169 151.803 26.338V43.6901H158.929V26.6479C158.929 22.6197 158 18.9014 155.831 16.7324Z" fill="#17313B"/>
<path d="M118.647 33.7749C121.385 33.7749 123.605 31.5552 123.605 28.8171C123.605 26.079 121.385 23.8594 118.647 23.8594C115.909 23.8594 113.689 26.079 113.689 28.8171C113.689 31.5552 115.909 33.7749 118.647 33.7749Z" fill="#EF4335"/>
<path d="M34.3662 33.1552C31.8873 35.634 28.169 37.1833 24.1408 37.1833C16.3944 37.1833 10.8169 30.9861 10.8169 22.6199C10.8169 14.2537 16.3944 8.05656 24.4507 8.05656C28.169 8.05656 31.8873 9.60586 34.6761 12.3946L35.6056 13.3242L40.2535 8.67628L39.3239 7.7467C35.2958 3.71853 30.0282 1.54952 24.4507 1.54952C12.6761 1.23966 4 10.5354 4 22.6199C4 34.7044 12.6761 44.0002 24.1408 44.0002C29.7183 44.0002 35.2958 41.8312 39.0141 37.803L39.9437 36.8735L35.2958 32.2256L34.3662 33.1552Z" fill="#17313B"/>
<path d="M181.024 7.46353C181.174 7.00287 181.826 7.00287 181.976 7.46353L183.97 13.6008C184.037 13.8068 184.229 13.9463 184.445 13.9463H190.898C191.383 13.9463 191.584 14.5661 191.192 14.8508L185.972 18.6439C185.796 18.7712 185.723 18.9969 185.79 19.2029L187.784 25.3402C187.934 25.8008 187.406 26.1839 187.015 25.8992L181.794 22.1061C181.619 21.9788 181.381 21.9788 181.206 22.1061L175.985 25.8992C175.594 26.1839 175.066 25.8008 175.216 25.3402L177.21 19.2029C177.277 18.9969 177.204 18.7712 177.028 18.6439L171.808 14.8508C171.416 14.5661 171.617 13.9463 172.102 13.9463H178.555C178.771 13.9463 178.963 13.8068 179.03 13.6008L181.024 7.46353Z" fill="#EF4335"/>
<path d="M204.024 7.46353C204.174 7.00287 204.826 7.00287 204.976 7.46353L206.97 13.6008C207.037 13.8068 207.229 13.9463 207.445 13.9463H213.898C214.383 13.9463 214.584 14.5661 214.192 14.8508L208.972 18.6439C208.796 18.7712 208.723 18.9969 208.79 19.2029L210.784 25.3402C210.934 25.8008 210.406 26.1839 210.015 25.8992L204.794 22.1061C204.619 21.9788 204.381 21.9788 204.206 22.1061L198.985 25.8992C198.594 26.1839 198.066 25.8008 198.216 25.3402L200.21 19.2029C200.277 18.9969 200.204 18.7712 200.028 18.6439L194.808 14.8508C194.416 14.5661 194.617 13.9463 195.102 13.9463H201.555C201.771 13.9463 201.963 13.8068 202.03 13.6008L204.024 7.46353Z" fill="#EF4335"/>
<path d="M227.024 7.46353C227.174 7.00287 227.826 7.00287 227.976 7.46353L229.97 13.6008C230.037 13.8068 230.229 13.9463 230.445 13.9463H236.898C237.383 13.9463 237.584 14.5661 237.192 14.8508L231.972 18.6439C231.796 18.7712 231.723 18.9969 231.79 19.2029L233.784 25.3402C233.934 25.8008 233.406 26.1839 233.015 25.8992L227.794 22.1061C227.619 21.9788 227.381 21.9788 227.206 22.1061L221.985 25.8992C221.594 26.1839 221.066 25.8008 221.216 25.3402L223.21 19.2029C223.277 18.9969 223.204 18.7712 223.028 18.6439L217.808 14.8508C217.416 14.5661 217.617 13.9463 218.102 13.9463H224.555C224.771 13.9463 224.963 13.8068 225.03 13.6008L227.024 7.46353Z" fill="#EF4335"/>
<path d="M250.024 7.46353C250.174 7.00287 250.826 7.00287 250.976 7.46353L252.97 13.6008C253.037 13.8068 253.229 13.9463 253.445 13.9463H259.898C260.383 13.9463 260.584 14.5661 260.192 14.8508L254.972 18.6439C254.796 18.7712 254.723 18.9969 254.79 19.2029L256.784 25.3402C256.934 25.8008 256.406 26.1839 256.015 25.8992L250.794 22.1061C250.619 21.9788 250.381 21.9788 250.206 22.1061L244.985 25.8992C244.594 26.1839 244.066 25.8008 244.216 25.3402L246.21 19.2029C246.277 18.9969 246.204 18.7712 246.028 18.6439L240.808 14.8508C240.416 14.5661 240.617 13.9463 241.102 13.9463H247.555C247.771 13.9463 247.963 13.8068 248.03 13.6008L250.024 7.46353Z" fill="#EF4335"/>
<path d="M273.024 7.46353C273.174 7.00287 273.826 7.00287 273.976 7.46353L275.97 13.6008C276.037 13.8068 276.229 13.9463 276.445 13.9463H282.898C283.383 13.9463 283.584 14.5661 283.192 14.8508L277.972 18.6439C277.796 18.7712 277.723 18.9969 277.79 19.2029L279.784 25.3402C279.934 25.8008 279.406 26.1839 279.015 25.8992L273.794 22.1061C273.619 21.9788 273.381 21.9788 273.206 22.1061L267.985 25.8992C267.594 26.1839 267.066 25.8008 267.216 25.3402L269.21 19.2029C269.277 18.9969 269.204 18.7712 269.028 18.6439L263.808 14.8508C263.416 14.5661 263.617 13.9463 264.102 13.9463H270.555C270.771 13.9463 270.963 13.8068 271.03 13.6008L273.024 7.46353Z" fill="#EF4335"/>
<path d="M178.1 41.072C177.268 41.072 176.512 40.888 175.832 40.52C175.16 40.144 174.632 39.632 174.248 38.984C173.872 38.336 173.684 37.608 173.684 36.8C173.684 35.992 173.872 35.264 174.248 34.616C174.632 33.968 175.16 33.46 175.832 33.092C176.512 32.716 177.268 32.528 178.1 32.528C178.932 32.528 179.68 32.712 180.344 33.08C181.016 33.448 181.544 33.96 181.928 34.616C182.312 35.264 182.504 35.992 182.504 36.8C182.504 37.608 182.312 38.34 181.928 38.996C181.544 39.644 181.016 40.152 180.344 40.52C179.68 40.888 178.932 41.072 178.1 41.072ZM178.1 40.28C178.764 40.28 179.364 40.132 179.9 39.836C180.436 39.532 180.856 39.116 181.16 38.588C181.464 38.052 181.616 37.456 181.616 36.8C181.616 36.144 181.464 35.552 181.16 35.024C180.856 34.488 180.436 34.072 179.9 33.776C179.364 33.472 178.764 33.32 178.1 33.32C177.436 33.32 176.832 33.472 176.288 33.776C175.752 34.072 175.328 34.488 175.016 35.024C174.712 35.552 174.56 36.144 174.56 36.8C174.56 37.456 174.712 38.052 175.016 38.588C175.328 39.116 175.752 39.532 176.288 39.836C176.832 40.132 177.436 40.28 178.1 40.28ZM192.783 40.232V42.968H191.955V41H184.623V32.6H185.499V40.232H190.575V32.6H191.451V40.232H192.783ZM200.501 40.04C200.157 40.368 199.697 40.624 199.121 40.808C198.553 40.984 197.921 41.072 197.225 41.072C196.489 41.072 195.861 40.972 195.341 40.772C194.829 40.572 194.441 40.296 194.177 39.944C193.921 39.592 193.793 39.188 193.793 38.732C193.793 38.228 193.941 37.8 194.237 37.448C194.541 37.096 194.937 36.852 195.425 36.716C195.025 36.564 194.713 36.324 194.489 35.996C194.265 35.66 194.153 35.268 194.153 34.82C194.153 34.396 194.273 34.012 194.513 33.668C194.761 33.316 195.129 33.04 195.617 32.84C196.113 32.632 196.709 32.528 197.405 32.528C197.917 32.528 198.413 32.588 198.893 32.708C199.381 32.82 199.797 32.984 200.141 33.2L199.865 33.908C199.129 33.492 198.321 33.284 197.441 33.284C196.665 33.284 196.069 33.432 195.653 33.728C195.245 34.024 195.041 34.408 195.041 34.88C195.041 35.352 195.205 35.716 195.533 35.972C195.869 36.228 196.341 36.356 196.949 36.356H199.037V37.124H196.913C196.225 37.124 195.681 37.256 195.281 37.52C194.881 37.776 194.681 38.16 194.681 38.672C194.681 39.176 194.897 39.576 195.329 39.872C195.769 40.168 196.413 40.316 197.261 40.316C197.853 40.316 198.405 40.232 198.917 40.064C199.429 39.896 199.845 39.664 200.165 39.368L200.501 40.04ZM209.174 32.6V41H208.298V37.124H203.042V41H202.154V32.6H203.042V36.344H208.298V32.6H209.174ZM214.794 37.148H212.874V41H212.01V32.6H212.874V36.368H214.794L217.638 32.6H218.598L215.478 36.68L218.778 41H217.758L214.794 37.148ZM223.644 32.528C224.732 32.528 225.588 32.848 226.212 33.488C226.844 34.12 227.16 35.036 227.16 36.236V41H226.284V38.528H221.004V41H220.14V36.236C220.14 35.036 220.452 34.12 221.076 33.488C221.708 32.848 222.564 32.528 223.644 32.528ZM226.284 37.76V36.152C226.284 35.216 226.052 34.512 225.588 34.04C225.124 33.56 224.476 33.32 223.644 33.32C222.812 33.32 222.164 33.56 221.7 34.04C221.236 34.512 221.004 35.216 221.004 36.152V37.76H226.284ZM229.725 35.948C229.549 35.948 229.397 35.884 229.269 35.756C229.149 35.628 229.089 35.472 229.089 35.288C229.089 35.104 229.149 34.952 229.269 34.832C229.397 34.704 229.549 34.64 229.725 34.64C229.901 34.64 230.053 34.704 230.181 34.832C230.309 34.952 230.373 35.104 230.373 35.288C230.373 35.472 230.309 35.628 230.181 35.756C230.053 35.884 229.901 35.948 229.725 35.948ZM229.725 41.06C229.549 41.06 229.397 40.996 229.269 40.868C229.149 40.74 229.089 40.584 229.089 40.4C229.089 40.216 229.149 40.064 229.269 39.944C229.397 39.816 229.549 39.752 229.725 39.752C229.901 39.752 230.053 39.816 230.181 39.944C230.309 40.064 230.373 40.216 230.373 40.4C230.373 40.584 230.309 40.74 230.181 40.868C230.053 40.996 229.901 41.06 229.725 41.06ZM236.969 36.044C238.185 36.044 239.069 36.264 239.621 36.704C240.181 37.136 240.461 37.744 240.461 38.528C240.461 39.016 240.345 39.452 240.113 39.836C239.889 40.22 239.549 40.524 239.093 40.748C238.637 40.964 238.077 41.072 237.413 41.072C236.813 41.072 236.241 40.976 235.697 40.784C235.161 40.584 234.729 40.32 234.401 39.992L234.821 39.308C235.101 39.596 235.469 39.832 235.925 40.016C236.381 40.192 236.873 40.28 237.401 40.28C238.097 40.28 238.633 40.124 239.009 39.812C239.393 39.5 239.585 39.084 239.585 38.564C239.585 37.988 239.369 37.552 238.937 37.256C238.513 36.96 237.793 36.812 236.777 36.812H234.989L235.421 32.6H240.017V33.368H236.177L235.889 36.044H236.969Z" fill="#17313B"/>
</svg>
