<svg width="40" height="40" viewBox="0 0 40 40" fill="none" xmlns="http://www.w3.org/2000/svg">
<g clip-path="url(#clip0_1229_504)">
<circle cx="20" cy="20" r="20" fill="black"/>
<rect width="6.6304" height="22.931" transform="matrix(0.711202 -0.702987 0.711202 0.702987 9.28906 14.4062)" fill="white"/>
<rect width="6.6304" height="22.931" transform="matrix(0.711202 0.702987 -0.711202 0.702987 25.5977 9.74609)" fill="white"/>
<rect width="6.6304" height="14.7848" transform="matrix(0.711202 0.702987 -0.711202 0.702987 19.8047 15.4717)" fill="#00E85C"/>
<rect width="6.6304" height="14.7848" transform="matrix(0.711202 0.702987 -0.711202 0.702987 19.8047 15.4717)" fill="#00E85C"/>
<rect width="6.6304" height="14.7848" transform="matrix(0.711202 0.702987 -0.711202 0.702987 19.8047 15.4717)" fill="#00E85C"/>
<rect width="6.6304" height="14.7848" transform="matrix(0.711202 -0.702987 0.711202 0.702987 9.28906 14.3984)" fill="#00E85C"/>
<rect width="6.6304" height="14.7848" transform="matrix(0.711202 -0.702987 0.711202 0.702987 9.28906 14.3984)" fill="#00E85C"/>
<rect width="6.6304" height="14.7848" transform="matrix(0.711202 -0.702987 0.711202 0.702987 9.28906 14.3984)" fill="#00E85C"/>
</g>
<defs>
<clipPath id="clip0_1229_504">
<rect width="40" height="40" fill="white"/>
</clipPath>
</defs>
</svg>
