<svg width="40" height="40" viewBox="0 0 40 40" fill="none" xmlns="http://www.w3.org/2000/svg">
<g clip-path="url(#clip0_1258_621)">
<circle cx="20" cy="20" r="20" fill="#1AF287"/>
<mask id="path-2-outside-1_1258_621" maskUnits="userSpaceOnUse" x="7" y="4" width="25" height="27" fill="black">
<rect fill="white" x="7" y="4" width="25" height="27"/>
<path d="M30.336 30H9.344L19.84 7.248L30.336 30ZM11.2 28.816H28.48L19.84 10.064L11.2 28.816Z"/>
</mask>
<path d="M30.336 30H9.344L19.84 7.248L30.336 30ZM11.2 28.816H28.48L19.84 10.064L11.2 28.816Z" fill="black"/>
<path d="M30.336 30V31H31.8986L31.244 29.5811L30.336 30ZM9.344 30L8.43597 29.5811L7.7814 31H9.344V30ZM19.84 7.248L20.748 6.8291L19.84 4.86077L18.932 6.8291L19.84 7.248ZM11.2 28.816L10.2918 28.3975L9.63821 29.816H11.2V28.816ZM28.48 28.816V29.816H30.0418L29.3882 28.3975L28.48 28.816ZM19.84 10.064L20.7482 9.64553L19.84 7.67433L18.9318 9.64553L19.84 10.064ZM30.336 29H9.344V31H30.336V29ZM10.252 30.4189L20.748 7.6669L18.932 6.8291L8.43597 29.5811L10.252 30.4189ZM18.932 7.6669L29.428 30.4189L31.244 29.5811L20.748 6.8291L18.932 7.6669ZM11.2 29.816H28.48V27.816H11.2V29.816ZM29.3882 28.3975L20.7482 9.64553L18.9318 10.4825L27.5718 29.2345L29.3882 28.3975ZM18.9318 9.64553L10.2918 28.3975L12.1082 29.2345L20.7482 10.4825L18.9318 9.64553Z" fill="black" mask="url(#path-2-outside-1_1258_621)"/>
</g>
<defs>
<clipPath id="clip0_1258_621">
<rect width="40" height="40" fill="white"/>
</clipPath>
</defs>
</svg>
