<svg width="206" height="42" viewBox="0 0 206 42" fill="none" xmlns="http://www.w3.org/2000/svg">
<g clip-path="url(#clip0_1228_39)">
<path d="M65.994 29L62.672 29L60.098 18.924L57.546 29H54.224L50.022 14.326H53.52L56.094 24.93L58.888 14.326L61.33 14.326L64.102 24.93L66.654 14.326H70.174L65.994 29ZM82.0313 29H71.6473V14.326H82.0313V17.076L74.7713 17.076V20.178H81.8773V22.928H74.7713V26.25H82.0313V29ZM92.4375 29L84.4735 29V14.326L92.1955 14.326C94.9895 14.326 96.4195 16.108 96.4195 18.066C96.4195 19.914 95.2755 21.146 93.8895 21.432C95.4515 21.674 96.7055 23.192 96.7055 25.04C96.7055 27.24 95.2315 29 92.4375 29ZM91.5135 20.2C92.5695 20.2 93.2295 19.54 93.2295 18.616C93.2295 17.692 92.5695 17.01 91.5135 17.01H87.5975V20.2H91.5135ZM91.6235 26.294C92.8115 26.294 93.5155 25.656 93.5155 24.6C93.5155 23.676 92.8555 22.884 91.6235 22.884H87.5975V26.294L91.6235 26.294ZM103.549 24.864H98.2694V22.488H103.549V24.864ZM121.563 29H118.417V18.726L114.281 29L112.917 29L108.781 18.726V29H105.657V14.326H110.035L113.599 23.192L117.163 14.326L121.563 14.326V29ZM138.161 29H134.597L133.695 26.514H127.403L126.479 29H122.915L128.591 14.326H132.507L138.161 29ZM132.837 23.764L130.549 17.45L128.261 23.764H132.837ZM145.871 29.264C141.471 29.264 138.061 26.184 138.061 21.674C138.061 17.164 141.471 14.084 145.871 14.084C149.105 14.084 150.975 15.844 152.009 17.67L149.325 18.99C148.709 17.802 147.389 16.856 145.871 16.856C143.209 16.856 141.273 18.902 141.273 21.674C141.273 24.446 143.209 26.492 145.871 26.492C147.389 26.492 148.709 25.568 149.325 24.358L152.009 25.656C150.953 27.482 149.105 29.264 145.871 29.264ZM167.068 29L163.922 29V22.84H156.992V29H153.868V14.326H156.992V20.09H163.922V14.326H167.068V29ZM173.084 29H169.96V14.326H173.084V29ZM189.131 29H186.117L179.121 19.43V29H175.997V14.326H179.209L186.007 23.544V14.326L189.131 14.326V29ZM202.408 29H192.024V14.326L202.408 14.326V17.076H195.148V20.178H202.254V22.928H195.148V26.25H202.408V29Z" fill="black"/>
<ellipse cx="21.0322" cy="20.6252" rx="21.0322" ry="20.6252" fill="black"/>
<rect width="6.90625" height="23.885" transform="matrix(0.718036 -0.696006 0.718036 0.696006 9.76953 14.8564)" fill="white"/>
<rect width="6.90625" height="23.885" transform="matrix(0.718036 0.696006 -0.718036 0.696006 26.9199 10.0498)" fill="white"/>
<rect width="6.90625" height="15.3999" transform="matrix(0.718036 0.696006 -0.718036 0.696006 20.8281 15.9551)" fill="#00E85C"/>
<rect width="6.90625" height="15.3999" transform="matrix(0.718036 0.696006 -0.718036 0.696006 20.8281 15.9551)" fill="#00E85C"/>
<rect width="6.90625" height="15.3999" transform="matrix(0.718036 0.696006 -0.718036 0.696006 20.8281 15.9551)" fill="#00E85C"/>
<rect width="6.90625" height="15.3999" transform="matrix(0.718036 -0.696006 0.718036 0.696006 9.76953 14.8477)" fill="#00E85C"/>
<rect width="6.90625" height="15.3999" transform="matrix(0.718036 -0.696006 0.718036 0.696006 9.76953 14.8477)" fill="#00E85C"/>
<rect width="6.90625" height="15.3999" transform="matrix(0.718036 -0.696006 0.718036 0.696006 9.76953 14.8477)" fill="#00E85C"/>
</g>
<defs>
<clipPath id="clip0_1228_39">
<rect width="206" height="42" fill="white"/>
</clipPath>
</defs>
</svg>
