<svg width="183" height="42" viewBox="0 0 183 42" fill="none" xmlns="http://www.w3.org/2000/svg">
<path d="M7.722 19.924L6.314 14.688L15.4 14.688L11.286 30H10.428L8.14 21.486L5.852 30H4.994L0.88 14.688H1.716L5.412 28.482L7.722 19.924ZM14.344 15.502L7.37 15.502L8.558 19.924L10.868 28.482L14.344 15.502ZM18.9252 14.688H30.0792V18.56H22.9292L22.9292 20.496H28.8692V24.17H22.9292V26.128H30.0792V30H18.9252L18.9252 14.688ZM41.7883 14.688C42.7563 14.688 43.5263 14.8347 44.0983 15.128C44.7876 15.48 45.3156 15.964 45.6823 16.58C46.0636 17.196 46.2543 17.8853 46.2543 18.648C46.2543 19.3667 46.0636 20.034 45.6823 20.65C45.301 21.2513 44.7803 21.728 44.1203 22.08C44.9123 22.3587 45.5796 22.8427 46.1223 23.532C46.665 24.2213 46.9363 24.9987 46.9363 25.864C46.9363 26.6267 46.7383 27.3307 46.3423 27.976C45.961 28.6067 45.4476 29.1053 44.8023 29.472C44.4796 29.648 44.1203 29.78 43.7243 29.868C43.3283 29.956 42.8003 30 42.1403 30L35.3643 30L35.3643 14.688L41.7883 14.688ZM53.2115 22.806V21.992H60.7795V22.806H53.2115ZM67.0986 14.666L67.9786 14.666L73.3246 24.126L78.6486 14.666H79.4626V29.978H67.0986V14.666ZM67.9126 29.186H78.6486V16.316L73.6986 25.028H72.9286L67.9126 16.184V29.186ZM96.7818 30L82.3498 30L89.5658 14.358L96.7818 30ZM83.6258 29.186L95.5058 29.186L89.5658 16.294L83.6258 29.186ZM112.165 24.214C112.18 26.1353 111.63 27.6387 110.515 28.724C109.4 29.7947 107.868 30.33 105.917 30.33C104.758 30.33 103.688 30.066 102.705 29.538C101.737 29.01 100.967 28.262 100.395 27.294C99.8229 26.326 99.5369 25.2113 99.5369 23.95V20.738C99.5369 19.4913 99.8083 18.384 100.351 17.416C100.908 16.448 101.664 15.7 102.617 15.172C103.585 14.6293 104.663 14.358 105.851 14.358C107.802 14.358 109.327 14.8933 110.427 15.964C111.542 17.02 112.106 18.516 112.121 20.452H108.161C108.146 19.704 107.941 19.1247 107.545 18.714C107.164 18.3033 106.599 18.098 105.851 18.098C105.176 18.098 104.619 18.3107 104.179 18.736C103.739 19.1613 103.519 19.7627 103.519 20.54V24.126C103.519 24.9033 103.746 25.512 104.201 25.952C104.67 26.3773 105.242 26.59 105.917 26.59C107.457 26.59 108.227 25.798 108.227 24.214H112.165ZM116.24 30V14.688H117.054V19.022C118.565 19.022 119.995 19.3153 121.344 19.902C122.693 20.474 123.874 21.2807 124.886 22.322C125.898 23.3487 126.675 24.5293 127.218 25.864V14.688H128.032V30H127.218C127.218 28.1667 126.763 26.4727 125.854 24.918C124.945 23.3487 123.705 22.1093 122.136 21.2C120.581 20.2907 118.887 19.836 117.054 19.836V30H116.24ZM133.471 18.56V14.688L143.371 14.688V18.56H138.817V26.128L143.371 26.128V30L133.471 30V26.128H138.025V18.56L133.471 18.56ZM148.744 29.978V14.666H149.602L160.294 25.072V14.666H161.108V29.978H148.744ZM165.492 14.688L176.646 14.688V18.56L169.496 18.56V20.496L175.436 20.496V24.17L169.496 24.17V26.128H176.646V30L165.492 30V14.688Z" fill="black"/>
</svg>
