<svg width="1000" height="129" viewBox="0 0 1000 129" fill="none" xmlns="http://www.w3.org/2000/svg">
<g clip-path="url(#clip0_1337_546)">
<path fill-rule="evenodd" clip-rule="evenodd" d="M934.612 32.6009H893.678C886.806 33.0073 884.887 34.7109 884.887 43.0517V66.0446H934.612V32.6009ZM956.407 14.1888V114.45H934.612V85.6302H884.887V114.45H863.092V35.8494C863.092 21.9616 868.717 14.1888 884.887 14.1888H956.407ZM841.3 35.8306V90.0899C841.3 107.363 831.597 114.431 819.502 114.431H750.754V14.1699H819.502C838.067 14.1699 841.3 25.9745 841.3 35.8306ZM819.243 41.8648C819.243 36.3716 815.895 32.582 810.033 32.582H772.552V95.2278L810.033 95.2251C818.571 94.7918 819.243 89.6727 819.243 85.6113V41.8648ZM306.469 14.1699H328.264V53.6882H377.027V14.1699H398.823V114.429H377.027V73.5133H328.264V114.429H306.469V14.1699ZM436.177 14.1699L463.5 55.1578L490.496 14.1699H516.96L474.387 78.2691V114.431H452.589V78.2637L409.72 14.1699H436.177ZM639.305 14.1699H709.541C719.55 14.1699 729.242 15.5749 728.959 35.8306V114.431H707.164V43.0329C707.164 34.3987 706.128 32.582 699.353 32.582H661.105V114.431H639.305V14.1699ZM1000 14.1888V114.45H978.199V14.1888H1000ZM527.861 114.431H598.091C612.054 114.431 617.795 110.391 617.512 90.2594V14.1699H595.717V85.7432C595.717 94.3235 594.681 95.3651 587.907 95.3651H549.659L549.656 14.1699H527.861V114.431Z" fill="white"/>
<path fill-rule="evenodd" clip-rule="evenodd" d="M152.624 79.1733C154.545 89.1047 149.34 97.3539 145.015 105.361C140.211 112.811 132.282 119.214 122.752 118.256C101.365 117.935 80.4637 114.652 61.08 108.803C60.1999 108.564 59.3198 108.001 58.8381 107.202C58.437 106.08 58.9995 105.038 59.7989 104.319C77.5005 89.9821 98.5636 83.3369 119.387 76.3661C127.155 74.1242 135.407 71.7207 144.135 72.8431C147.736 73.3248 151.34 75.809 152.624 79.1733ZM225.586 36.7267C235.517 44.8952 244.488 56.0297 241.444 69.4841C236.478 89.3469 214.855 99.9189 197.635 106.645C188.264 109.77 178.814 112.975 168.562 113.936C167.922 113.855 166.88 114.014 166.719 113.053L166.958 111.933C181.535 95.513 192.586 77.0955 202.281 58.4331C206.765 50.0224 210.931 41.3748 214.774 32.8833C215.334 32.2428 215.897 31.9225 216.537 31.683C220.138 32.0006 222.703 34.805 225.586 36.7267ZM85.8251 15.5828L85.5048 16.7832C64.4416 40.7289 50.5861 68.5206 37.4519 96.1509C34.8897 98.5543 32.4055 95.3488 30.0828 94.3072C18.3885 86.6205 7.81655 74.2049 10.8606 59.4693C15.7455 40.2498 35.5275 29.9981 52.0287 23.0327C61.7986 19.3481 71.9722 16.3849 82.703 14.7027C83.8253 14.7 85.2652 14.5412 85.8251 15.5828ZM190.347 19.4262C191.547 20.0667 192.99 20.3063 193.711 21.5067C194.352 22.8685 193.071 23.7486 192.349 24.6314C175.77 37.6041 156.79 44.8145 137.406 51.142C127.553 53.5455 117.622 57.8706 106.651 55.4672C104.086 54.8266 101.766 53.1445 100.324 50.6603C97.6001 43.1323 101.285 35.2841 104.487 28.717C108.732 20.4678 116.262 10.7759 126.673 10.6171C149.098 10.4556 170.242 13.8199 190.347 19.4262ZM218.058 20.0667C235.038 29.3576 254.26 45.6946 252.258 67.479C249.935 87.6621 231.114 101.757 214.295 110.249C165.198 133.715 96.2409 134.434 45.5424 113.933C28.4006 106.806 9.17841 94.5522 1.96806 76.1293C-3.55745 60.9927 3.16844 45.2155 14.4644 34.7243C38.0898 13.2601 68.2042 5.89365 99.2015 1.64657C132.842 -2.43903 168.239 1.1648 198.354 11.4972C205.082 13.9814 211.73 16.7051 218.058 20.0667Z" fill="white"/>
</g>
<defs>
<clipPath id="clip0_1337_546">
<rect width="1000" height="128.62" fill="white"/>
</clipPath>
</defs>
</svg>
