<svg width="1155" height="317" viewBox="0 0 1155 317" fill="none" xmlns="http://www.w3.org/2000/svg">
<g clip-path="url(#clip0_1338_557)">
<path d="M-0.000244842 270.164V256.336C7.03929 256.336 16.8175 249.547 19.1319 242.7C20.6169 238.303 21.3691 231.881 21.3691 223.472V92.4786C21.3691 82.6618 19.3633 76.143 15.3517 72.9414C11.3402 69.7399 10.2408 69.4506 -0.0195312 68.8334V56.818C33.9053 56.818 67.7915 56.818 101.716 56.818V68.8334C88.0229 69.5856 86.1907 84.2047 86.1907 95.873V211.861C86.1907 239.422 96.5282 251.707 113.539 252.71C123.664 253.308 138.052 251.495 148.814 242.199C157.859 234.388 164.146 222.469 167.676 206.442H179.421L178.303 269.547C118.804 268.448 59.479 269.2 -0.0195312 270.145L-0.000244842 270.164ZM746.461 67.522V56.7601H906.017C906.017 56.7601 919.73 85.6319 923.144 98.8431C926.577 112.054 926.577 123.8 926.577 123.8H917.281C917.281 123.8 903.086 94.9279 883.028 84.6483C862.97 74.3686 838.496 77.3002 838.496 77.3002V124.282C849.45 124.533 867.676 125.728 870.299 110.087C871.283 104.32 870.299 91.495 870.299 91.495H880.579L894.773 181.543H885.477C885.477 181.543 876.181 156.587 861.987 150.222C848.332 144.108 838.573 143.761 837.859 143.742C838.013 212.845 838.496 189.489 838.496 249.586C838.496 249.586 865.67 253.501 885.728 243.221C909.065 231.283 920.849 188.486 931.418 187.696C931.418 187.696 941.273 185.651 940.791 188.891C936.104 219.595 927.772 241.794 913.867 270.126H746.48V259.364C756.76 259.364 768.004 256.432 768.004 237.821C768.004 188.216 768.004 138.631 768.004 89.0263C768.004 70.4342 756.741 67.4834 746.48 67.4834L746.461 67.522ZM549.662 44.2047V44.224L549.894 44.5711L550.106 44.899L550.318 45.2269L550.511 45.5355L550.704 45.8247L550.897 46.114L551.07 46.384L551.244 46.6541L551.417 46.9048L551.572 47.1555L551.726 47.3869L551.88 47.6184L552.035 47.8498L552.17 48.0813L552.305 48.2934L552.44 48.5056L552.575 48.7177L552.71 48.9299L552.845 49.142L552.98 49.3542L553.115 49.5663L553.25 49.7785L553.385 49.9906L553.52 50.2028L553.655 50.4149L553.79 50.6271L553.925 50.8392L554.079 51.0706L554.233 51.3021L554.388 51.5335L554.542 51.765L554.696 52.0157L554.87 52.2664L555.217 52.8064L555.41 53.0957L555.603 53.385L555.795 53.6936L556.008 54.0215L556.22 54.3493L556.451 54.6965L556.683 55.0629L556.933 55.4487L557.184 55.8344L557.454 56.2394L557.743 56.6637L558.033 57.1073L558.997 58.5731L559.344 59.0938L559.711 59.6338L560.077 60.2124L560.463 60.8103L560.868 61.4274L561.292 62.0639L561.736 62.7389L562.199 63.4332L562.681 64.1661L563.163 64.9183L563.664 65.6897L564.185 66.4998L564.725 67.3291L565.284 68.197L603.819 127.098C612.999 110.839 633.944 73.52 634.33 70.4728C634.812 66.5576 619.653 67.5412 619.653 67.5412V57.763L705.304 57.2809V68.0427C669.084 64.3783 663.703 76.6059 651.475 96.1816L618.341 149.296L716.278 299.036C760.81 306.847 929.894 304.166 992.652 306.403C1061.18 308.853 1041.1 316.683 1016.14 316.683C991.186 316.683 619.711 315.95 619.711 315.95V296.374C619.711 296.374 623.626 296.857 628.274 294.427C629.527 293.771 630.627 292.401 631.475 290.627L563.066 186.056C557.068 194.504 537.608 222.141 532.825 231.553C530.357 236.413 529.026 241.138 529.103 246.712C529.354 265.073 567.522 258.708 567.522 258.708V269.47H475.506V258.708C475.506 258.708 479.672 258.708 484.802 258.457C489.932 258.207 495.333 252.575 506.094 232.999C512.536 221.292 531.225 185.593 545.227 158.785L451.88 16.0851C394.638 10.2413 245.535 12.3821 187.464 10.2992C118.939 7.84981 139.016 0.0195312 163.973 0.0195312C188.929 0.0195312 560.405 0.752415 560.405 0.752415V20.3281C560.405 20.3281 556.49 19.846 551.842 22.276C547.194 24.7254 544.648 36.6637 549.585 44.224L549.662 44.2047ZM974.966 270.145V256.317C982.006 256.317 991.784 249.528 994.098 242.681C995.583 238.284 996.336 231.861 996.336 223.453V92.4593C996.336 82.6425 994.33 76.1237 990.318 72.9222C986.307 69.7206 985.207 69.4313 974.947 68.8141V56.7987C1008.87 56.7987 1042.76 56.7987 1076.68 56.7987V68.8141C1062.99 69.5663 1061.16 84.1854 1061.16 95.8537V211.842C1061.16 239.402 1071.49 251.688 1088.51 252.691C1098.63 253.289 1113.02 251.476 1123.78 242.18C1132.83 234.369 1139.11 222.45 1142.64 206.423H1154.39L1153.27 269.528C1093.77 268.428 1034.45 269.181 974.947 270.126L974.966 270.145ZM233.057 179.807V104.243C233.057 95.2558 232.401 88.4863 231.109 83.8961C229.354 77.7438 221.041 69.0842 214.522 68.5248V56.818C251.533 56.818 287.29 57.3387 324.494 56.2394V68.5441C317.358 69.3156 308.139 75.6801 305.979 82.6039C304.571 87.0977 303.876 93.7322 303.876 102.527V182.778C303.876 229.431 321.678 246.616 350.897 248.081C371.302 249.103 393.346 236.259 399.441 216.606C407.888 189.335 404.243 134.754 404.243 104.725C404.243 75.2365 404.243 68.6984 381.581 67.9655V56.8373C407.56 57.9945 430.742 58.1102 456.702 56.8373V68.5441C449.392 68.6599 431.649 68.737 430.106 84.2047C428.023 105.15 429.219 139.19 429.219 169.431C429.219 194.909 429.315 224.976 411.07 245.092C395.738 262.006 369.566 269.431 336.509 269.431C303.259 269.431 267.367 260.617 251.09 243.665C234.31 226.191 233.057 202.643 233.057 179.827V179.807Z" fill="white"/>
</g>
<defs>
<clipPath id="clip0_1338_557">
<rect width="1154.43" height="316.685" fill="white"/>
</clipPath>
</defs>
</svg>
