<svg width="1671" height="277" viewBox="0 0 1671 277" fill="none" xmlns="http://www.w3.org/2000/svg">
<path fill-rule="evenodd" clip-rule="evenodd" d="M197.763 262.005C175.643 248.142 159.34 200.303 159.34 143.451C159.34 141.365 159.349 139.305 159.401 137.254L159.419 137.281C97.8827 127.608 53.4241 101.105 52.2803 69.7522L52.1044 70.1219C37.0502 88.8437 28.4542 110.488 28.4542 133.549C28.4542 201.412 102.915 257.014 197.367 261.934L197.763 262.005ZM0 138.496C0 62.5697 94.4601 1 210.978 1C327.504 1 421.964 62.5697 421.964 138.496C421.964 214.43 327.504 276 210.978 276C94.4601 276 0 214.43 0 138.496ZM210.987 20.8396C233.484 20.8396 252.621 54.9825 259.712 102.619L259.73 102.54C303.502 95.7268 334.138 80.0065 334.138 61.7072C334.138 37.1585 278.999 17.2748 210.987 17.2748C142.983 17.2748 87.8436 37.1585 87.8436 61.7072C87.8436 80.0065 118.48 95.718 162.243 102.54L162.27 102.619C169.361 54.9825 188.498 20.8396 210.987 20.8396ZM224.607 261.926C319.058 257.005 393.528 201.403 393.528 133.54C393.528 110.479 384.923 88.8349 369.878 70.1131L369.693 69.7434C368.558 101.096 324.099 127.599 262.554 137.272L262.581 137.246C262.625 139.297 262.642 141.356 262.642 143.442C262.642 200.294 246.33 248.133 224.22 261.996L224.607 261.926ZM210.987 106.148C220.752 106.16 230.513 105.743 240.241 104.898L240.233 104.907C235.569 74.382 224.237 52.826 210.995 52.826C197.754 52.826 186.43 74.382 181.758 104.907L181.749 104.898C191.472 105.739 201.227 106.156 210.987 106.148ZM210.987 219.218C227.924 219.218 241.746 183.958 242.476 139.745L242.564 139.772C221.56 141.708 200.422 141.708 179.418 139.772L179.506 139.745C180.236 183.958 194.05 219.218 210.987 219.218ZM1076.59 138.496C1076.59 80.4642 1123.63 33.4089 1181.64 33.4089C1239.67 33.4089 1286.7 80.4642 1286.7 138.496C1286.7 196.545 1239.67 243.582 1181.64 243.582C1123.63 243.582 1076.59 196.545 1076.59 138.496ZM1181.64 205.047C1214.04 205.047 1240.31 175.244 1240.31 138.487C1240.31 101.739 1214.04 71.9351 1181.64 71.9351C1149.24 71.9351 1122.99 101.739 1122.99 138.487C1122.99 175.253 1149.25 205.047 1181.64 205.047ZM1405.9 77.1899V238.812H1361.63V77.1899H1361.79H1299.89V40.6529H1467.64V77.1899H1405.9ZM1521.19 194.23L1521.15 194.274L1504.17 238.82H1452.46L1534.19 40.6529H1589.29L1671 238.82H1619.31L1602.33 194.274L1602.28 194.23H1521.19ZM1561.74 160.782H1589.6L1589.58 160.791L1561.93 88.2627H1561.55L1533.89 160.791L1533.88 160.782H1561.74ZM589.997 77.1899V238.812H545.732V77.1899H545.891H483.985V40.6529H651.745V77.1899H589.997ZM663.068 138.496C663.068 80.4642 710.105 33.4089 768.13 33.4089C826.147 33.4089 873.184 80.4642 873.184 138.496C873.184 196.545 826.147 243.582 768.13 243.582C710.105 243.582 663.068 196.545 663.068 138.496ZM768.13 205.047C800.517 205.047 826.79 175.244 826.79 138.487C826.79 101.739 800.517 71.9351 768.13 71.9351C735.735 71.9351 709.471 101.739 709.471 138.487C709.471 175.253 735.735 205.047 768.13 205.047ZM974.876 238.812H997.321V163.572L1074.54 40.6529H1022.85L974.876 123.946L926.916 40.6529H875.225L952.44 163.572V238.812H974.876Z" fill="white"/>
</svg>
