<svg width="112" height="37" viewBox="0 0 112 37" fill="none" xmlns="http://www.w3.org/2000/svg">
<g clip-path="url(#clip0_2114_12184)">
<path d="M49.7631 13.3347H58.0294L49.5812 22.6389C49.5221 22.6779 49.4691 22.7258 49.4242 22.7808L49.358 22.9143V25.2007C49.3712 25.3206 49.4138 25.4354 49.482 25.5345C49.5765 25.6284 49.698 25.6898 49.8292 25.7097H61.154C61.2562 25.6997 61.3521 25.6556 61.4268 25.5845C61.526 25.4677 61.4268 25.2007 61.4268 25.2007V23.2063C61.4268 23.2063 61.5012 22.956 61.3772 22.8559C61.3028 22.7959 61.2147 22.7558 61.121 22.739H53.268L61.3772 13.6184C61.4189 13.5434 61.4549 13.4653 61.4847 13.3847C61.5162 13.29 61.5162 13.1874 61.4847 13.0927V10.8313C61.5052 10.7749 61.51 10.7139 61.4983 10.655C61.4866 10.596 61.459 10.5415 61.4185 10.4975C61.3519 10.416 61.2576 10.3625 61.154 10.3473H49.7548C49.6398 10.3613 49.531 10.4075 49.4407 10.4808C49.3572 10.5667 49.2974 10.6732 49.2671 10.7896V12.859C49.2967 12.9798 49.3501 13.0933 49.4242 13.1928C49.5225 13.2699 49.6395 13.3189 49.7631 13.3347Z" fill="white"/>
<path d="M67.0479 25.5929C67.0991 25.4808 67.1164 25.356 67.0975 25.2341V20.3441H68.5937C73.4874 20.3441 74.5372 17.6154 74.5372 15.3374C74.597 14.6184 74.4839 13.8955 74.2076 13.2301C73.9312 12.5647 73.4998 11.9765 72.95 11.5155C71.9085 10.7395 70.3462 10.3473 68.1473 10.3473H64.5928C64.4814 10.3599 64.3756 10.4032 64.287 10.4725C64.1987 10.5617 64.1458 10.6804 64.1382 10.8062V12.8507C64.141 12.9689 64.1753 13.0842 64.2374 13.1845C64.3234 13.2673 64.4335 13.3199 64.5515 13.3347H68.6846C71.2637 13.3347 71.5944 14.4361 71.5944 15.4292C71.5944 16.4222 71.3133 17.3651 68.602 17.3651L66.6677 17.29H64.568C64.4681 17.3236 64.3735 17.3713 64.287 17.4319C64.1988 17.5279 64.1462 17.6517 64.1382 17.7823V25.2925C64.1422 25.4131 64.1763 25.5308 64.2374 25.6346C64.3318 25.7183 64.4509 25.7682 64.5763 25.7765H66.7999C66.8513 25.7641 66.8997 25.7414 66.9423 25.7099C66.9848 25.6784 67.0208 25.6386 67.0479 25.5929Z" fill="white"/>
<path d="M75.7111 25.6012C75.8037 25.6705 75.9114 25.7163 76.0252 25.7347H84.0518C84.173 25.723 84.2867 25.67 84.3742 25.5845C84.4505 25.4813 84.4885 25.3543 84.4817 25.2257V23.2063C84.4798 23.0743 84.4263 22.9483 84.3329 22.8559C84.2446 22.7872 84.1382 22.7465 84.027 22.739H78.563V10.8062C78.563 10.8062 78.6126 10.5142 78.563 10.4307C78.4436 10.3758 78.3139 10.3473 78.1827 10.3473H76.0335C75.9141 10.3521 75.7977 10.3865 75.6946 10.4474C75.5995 10.5447 75.5385 10.6707 75.521 10.8062V25.2591C75.5504 25.3893 75.6164 25.5081 75.7111 25.6012Z" fill="white"/>
<path d="M96.9139 25.6263C96.9922 25.6777 97.079 25.7145 97.1702 25.7348H99.6501C99.6501 25.7348 99.9973 25.7348 100.014 25.5429C100.022 25.4184 100.005 25.2935 99.9642 25.1757L94.4754 10.5643C94.4754 10.5643 94.4258 10.3724 94.3431 10.3306C94.2646 10.2964 94.1806 10.2767 94.0951 10.2722H91.6153C91.5167 10.2552 91.4154 10.278 91.3334 10.3358C91.2514 10.3936 91.1953 10.4817 91.1771 10.581L85.7214 25.1006C85.6689 25.2271 85.6462 25.3643 85.6553 25.5011C85.7297 25.7431 86.0934 25.7348 86.0934 25.7348H88.4327C88.5217 25.7203 88.6064 25.6861 88.6807 25.6347C88.776 25.5243 88.8439 25.3928 88.8791 25.2508L92.8221 14.1358L96.7817 25.3343C96.7965 25.4426 96.8425 25.5441 96.9139 25.6263Z" fill="white"/>
<path d="M111.942 10.4307C111.902 10.3832 111.853 10.3446 111.798 10.3173C111.742 10.29 111.682 10.2746 111.62 10.2722H109.033C108.929 10.2711 108.825 10.288 108.727 10.3222C108.647 10.3966 108.585 10.4878 108.545 10.5892L105.238 16.7726L101.932 10.5559C101.889 10.4604 101.816 10.3815 101.725 10.3306C101.652 10.2979 101.574 10.2782 101.494 10.2722H98.8816C98.7559 10.2689 98.633 10.3102 98.5344 10.389C98.4791 10.454 98.4487 10.5369 98.4487 10.6226C98.4487 10.7083 98.4791 10.7912 98.5344 10.8563C99.5181 12.6086 102.552 17.9909 103.354 19.4429C103.409 19.5656 103.491 19.6741 103.593 19.76C103.68 19.7978 103.772 19.8203 103.866 19.8267H106.52C106.634 19.8355 106.749 19.803 106.842 19.7349C106.92 19.6577 106.985 19.5674 107.032 19.4679L111.942 10.7979C111.973 10.7415 111.989 10.6784 111.989 10.6143C111.989 10.5501 111.973 10.487 111.942 10.4307Z" fill="white"/>
<path d="M106.85 22.4636C106.601 22.3015 106.302 22.2374 106.009 22.2835C105.717 22.3297 105.451 22.4829 105.263 22.714C105.191 22.5796 105.092 22.462 104.973 22.3686C104.853 22.2753 104.715 22.2082 104.568 22.1719C104.422 22.1355 104.269 22.1306 104.12 22.1574C103.971 22.1843 103.829 22.2424 103.704 22.3279C103.579 22.4134 103.473 22.5244 103.392 22.6538C103.312 22.7833 103.26 22.9283 103.238 23.0794C103.217 23.2306 103.227 23.3845 103.269 23.5314C103.31 23.6783 103.381 23.8149 103.478 23.9323C103.833 24.3746 105.247 25.693 105.247 25.693C105.247 25.693 106.652 24.3829 106.991 23.9573C107.153 23.7344 107.229 23.4589 107.203 23.1834C107.177 22.9079 107.051 22.6517 106.85 22.4636Z" fill="white"/>
<path d="M39.6618 8.08563C37.5912 5.0088 34.6454 2.63773 31.2129 1.28509C27.7804 -0.0675497 24.0224 -0.338236 20.4344 0.508725C17.8904 1.10874 15.5013 2.24636 13.4246 3.84657C6.28252 2.61157 1.34755 6.93408 0.19853 9.17043C-0.900887 11.1147 4.55487 10.4138 6.59664 10.9311C7.15875 11.0647 7.29928 11.3317 7.20008 11.7155C2.09978 30.6244 18.3678 36.9663 22.4018 37.008C20.0174 35.6899 18.1191 33.6289 16.9899 31.1325C15.8607 28.6362 15.5611 25.8382 16.1359 23.156C16.7039 20.4706 18.144 18.0535 20.2278 16.2884C20.4412 16.093 20.6647 15.9092 20.8973 15.7376C20.4427 18.9002 16.9956 21.2534 17.6321 21.7624C18.2686 22.2715 20.8147 21.0782 23.1706 19.7264C26.2374 17.9573 25.9894 15.6542 29.3785 14.6111H29.5935C33.1149 14.6695 35.3137 12.4749 38.3971 12.0076C40.629 11.6655 44.0843 11.5236 43.795 10.564C43.5056 9.60435 41.3895 8.78658 39.6618 8.08563Z" fill="white"/>
<path d="M38.835 20.486C37.8353 20.486 36.8766 20.8869 36.1697 21.6005C35.4628 22.3141 35.0656 23.2819 35.0656 24.2911C35.0656 24.3996 35.0656 24.4997 35.0656 24.6082H34.9664C34.9078 23.9163 34.5908 23.2727 34.0797 22.8079C33.5686 22.343 32.9016 22.0917 32.2137 22.1048C31.8437 22.1048 31.4772 22.1788 31.1356 22.3225C30.794 22.4662 30.484 22.6769 30.2234 22.9422C29.9629 23.2075 29.757 23.5223 29.6176 23.8684C29.4783 24.2145 29.4082 24.5851 29.4115 24.9587C29.4155 25.3012 29.4799 25.6403 29.6016 25.96C30.055 27.2283 30.0531 28.617 29.5962 29.8839C29.1394 31.1509 28.2565 32.2159 27.1016 32.8932C25.9467 33.5704 24.5929 33.8171 23.2763 33.5901C21.9597 33.3631 20.7638 32.6769 19.897 31.6511C21.4147 33.7985 23.5611 35.4116 26.0342 36.2637C28.5073 37.1158 31.1828 37.164 33.6845 36.4014C36.1861 35.6388 38.388 34.1039 39.9807 32.0124C41.5733 29.921 42.4764 27.3782 42.5631 24.7417C42.5719 24.5833 42.5719 24.4245 42.5631 24.2661C42.5546 23.2691 42.1596 22.3151 41.4627 21.6086C40.7659 20.902 39.8226 20.499 38.835 20.486Z" fill="white"/>
</g>
<defs>
<clipPath id="clip0_2114_12184">
<rect width="112" height="37" fill="white"/>
</clipPath>
</defs>
</svg>
